<svg id="Layer_1" data-name="Layer 1" xmlns="http://www.w3.org/2000/svg" viewBox="0 0 36 36"><defs><style>.cls-1{fill:#555}</style></defs><path class="cls-1" d="M22.11 11A1.89 1.89 0 0 1 24 12.89v20.22A1.89 1.89 0 0 1 22.11 35h-8.22A1.89 1.89 0 0 1 12 33.11V12.89A1.89 1.89 0 0 1 13.89 11h8.22m0-1h-8.22A2.89 2.89 0 0 0 11 12.89v20.22A2.89 2.89 0 0 0 13.89 36h8.22A2.89 2.89 0 0 0 25 33.11V12.89A2.89 2.89 0 0 0 22.11 10z"/><path class="cls-1" d="M25 13H11v1h14v-1zM25 31H11v1h14v-1zM16 33h4v1h-4z"/></svg>
