<svg id="Layer_1" data-name="Layer 1" xmlns="http://www.w3.org/2000/svg" viewBox="0 0 36 36"><defs><style>.cls-1{fill:#fff}</style></defs><path class="cls-1" d="M22.11 11A1.89 1.89 0 0 1 24 12.89v20.22A1.89 1.89 0 0 1 22.11 35h-8.22A1.89 1.89 0 0 1 12 33.11V12.89A1.89 1.89 0 0 1 13.89 11h8.22m0-1h-8.22A2.89 2.89 0 0 0 11 12.89v20.22A2.89 2.89 0 0 0 13.89 36h8.22A2.89 2.89 0 0 0 25 33.11V12.89A2.89 2.89 0 0 0 22.11 10z"/><circle class="cls-1" cx="18" cy="33" r="1"/><path class="cls-1" d="M21 11v1h-6v-1h6m0-1h-6a1 1 0 0 0-1 1v1a1 1 0 0 0 1 1h6a1 1 0 0 0 1-1v-1a1 1 0 0 0-1-1z"/></svg>
