<svg id="Layer_1" data-name="Layer 1" xmlns="http://www.w3.org/2000/svg" viewBox="0 0 36 36"><defs><style>.cls-1{fill:#fff}</style><filter id="luminosity-noclip" x="3" y="11" width="29" height="22" filterUnits="userSpaceOnUse" color-interpolation-filters="sRGB"><feFlood flood-color="#fff" result="bg"/><feBlend in="SourceGraphic" in2="bg"/></filter><mask id="mask" x="3" y="11" width="29" height="22" maskUnits="userSpaceOnUse"><g filter="url(#luminosity-noclip)"><path d="M3 18h7v14H3zM25 11h7v22h-7z"/></g></mask></defs><path class="cls-1" d="M7.11 19A1.89 1.89 0 0 1 9 20.89v12.22A1.89 1.89 0 0 1 7.11 35H2.89A1.89 1.89 0 0 1 1 33.11V20.89A1.89 1.89 0 0 1 2.89 19h4.22m0-1H2.89A2.89 2.89 0 0 0 0 20.89v12.22A2.89 2.89 0 0 0 2.89 36h4.22A2.89 2.89 0 0 0 10 33.11V20.89A2.89 2.89 0 0 0 7.11 18zM32.92 10A2.09 2.09 0 0 1 35 12.08v20.84A2.09 2.09 0 0 1 32.92 35h-4.84A2.09 2.09 0 0 1 26 32.92V12.08A2.09 2.09 0 0 1 28.08 10h4.84m0-1h-4.84A3.08 3.08 0 0 0 25 12.08v20.84A3.08 3.08 0 0 0 28.08 36h4.84A3.08 3.08 0 0 0 36 32.92V12.08A3.08 3.08 0 0 0 32.92 9z"/><circle class="cls-1" cx="5" cy="33" r="1"/><path class="cls-1" d="M6 19v1H4v-1h2m0-1H4a1 1 0 0 0-1 1v1a1 1 0 0 0 1 1h2a1 1 0 0 0 1-1v-1a1 1 0 0 0-1-1z"/><g mask="url(#mask)"><path class="cls-1" d="M28.13 13A1.87 1.87 0 0 1 30 14.87v14.26A1.87 1.87 0 0 1 28.13 31H7.87A1.87 1.87 0 0 1 6 29.13V14.87A1.87 1.87 0 0 1 7.87 13h20.26m0-1H7.87A2.88 2.88 0 0 0 5 14.87v14.26A2.88 2.88 0 0 0 7.87 32h20.26A2.88 2.88 0 0 0 31 29.13V14.87A2.88 2.88 0 0 0 28.13 12z"/></g><path class="cls-1" d="M13 35h10v1H13zM16 32h1v3h-1zM19 32h1v3h-1z"/><circle class="cls-1" cx="28.5" cy="32.5" r=".5"/><circle class="cls-1" cx="30.5" cy="32.5" r=".5"/><circle class="cls-1" cx="32.5" cy="32.5" r=".5"/><circle class="cls-1" cx="28.5" cy="30.5" r=".5"/><circle class="cls-1" cx="30.5" cy="30.5" r=".5"/><circle class="cls-1" cx="32.5" cy="30.5" r=".5"/><circle class="cls-1" cx="28.5" cy="28.5" r=".5"/><circle class="cls-1" cx="30.5" cy="28.5" r=".5"/><circle class="cls-1" cx="32.5" cy="28.5" r=".5"/><path class="cls-1" d="M30 13h1v6h-1z"/></svg>
