<?xml version="1.0" encoding="utf-8"?>
<!-- Generator: Adobe Illustrator 23.0.2, SVG Export Plug-In . SVG Version: 6.00 Build 0)  -->
<svg version="1.1" id="Layer_1" xmlns="http://www.w3.org/2000/svg" xmlns:xlink="http://www.w3.org/1999/xlink" x="0px" y="0px"
	 viewBox="0 0 36 36" style="enable-background:new 0 0 36 36;" xml:space="preserve">
<style type="text/css">
	.st0{fill:#fff;}
</style>
<path class="st0" d="M26.5,32c-0.3,0-0.5,0.2-0.5,0.5s0.2,0.5,0.5,0.5s0.5-0.2,0.5-0.5S26.8,32,26.5,32z M26.5,28
	c-0.3,0-0.5,0.2-0.5,0.5s0.2,0.5,0.5,0.5s0.5-0.2,0.5-0.5S26.8,28,26.5,28z M26.5,30c-0.3,0-0.5,0.2-0.5,0.5s0.2,0.5,0.5,0.5
	s0.5-0.2,0.5-0.5S26.8,30,26.5,30z M30.5,28c-0.3,0-0.5,0.2-0.5,0.5s0.2,0.5,0.5,0.5s0.5-0.2,0.5-0.5S30.8,28,30.5,28z M30.9,9h-4.8
	c-1.7,0-3,1.3-3.1,3H5.9C4.3,12,3,13.3,3,14.9v14.3C3,30.7,4.3,32,5.9,32H14v3h-3v1h10v-1h-3v-3h5v0.9c0,1.7,1.4,3.1,3.1,3.1h4.8
	c1.7,0,3.1-1.4,3.1-3.1V12.1C34,10.4,32.6,9,30.9,9z M17,35h-2v-3h2V35z M23,31H5.9c-1,0-1.9-0.8-1.9-1.9V14.9c0-1,0.8-1.9,1.9-1.9
	H23V31z M33,32.9c0,1.1-0.9,2.1-2.1,2.1h-4.8c-1.1,0-2.1-0.9-2.1-2.1V12.1c0-1.1,0.9-2.1,2.1-2.1h4.8c1.1,0,2.1,0.9,2.1,2.1V32.9z
	 M30.5,30c-0.3,0-0.5,0.2-0.5,0.5s0.2,0.5,0.5,0.5s0.5-0.2,0.5-0.5S30.8,30,30.5,30z M28,19h1v-6h-1V19z M28.5,32
	c-0.3,0-0.5,0.2-0.5,0.5s0.2,0.5,0.5,0.5s0.5-0.2,0.5-0.5S28.8,32,28.5,32z M30.5,32c-0.3,0-0.5,0.2-0.5,0.5s0.2,0.5,0.5,0.5
	s0.5-0.2,0.5-0.5S30.8,32,30.5,32z M28.5,30c-0.3,0-0.5,0.2-0.5,0.5s0.2,0.5,0.5,0.5s0.5-0.2,0.5-0.5S28.8,30,28.5,30z M28.5,28
	c-0.3,0-0.5,0.2-0.5,0.5s0.2,0.5,0.5,0.5s0.5-0.2,0.5-0.5S28.8,28,28.5,28z"/>
</svg>
